<svg id="Ebene_1" data-name="Ebene 1" xmlns="http://www.w3.org/2000/svg" viewBox="0 0 1366 768"><defs><style>.cls-1{fill:#ebf1ff;}.cls-2{fill:#738fea;}.cls-3{fill:#c18c38;}.cls-4,.cls-7{fill:none;stroke-miterlimit:10;}.cls-4{stroke:#514324;}.cls-5{fill:#8c6239;}.cls-6{fill:#aa8533;}.cls-7{stroke:#4c3f21;}.cls-8{fill:#11750e;}.cls-9{fill:#539e04;}.cls-10{fill:#82dff4;}.cls-11{fill:#e2b939;}</style></defs><title>quadrateText2Zeichenfläche 1</title><rect class="cls-1" x="-1" y="-2" width="1366" height="415"/><rect class="cls-2" x="0.5" y="410" width="1366" height="358.5"/><path class="cls-3" d="M352,263.58l-15.13-4.05c-2.48-.66-2.32-1.66-2.25-5.78l.41-5.41a4.68,4.68,0,0,1,5.72-3.3l15.13,4.05a4.68,4.68,0,0,1,3.3,5.72l-2.09,3.93C355.32,261.38,354.45,264.25,352,263.58Z"/><path class="cls-4" d="M352,263.58l-15.13-4.05c-2.48-.66-2.32-1.66-2.25-5.78l.41-5.41a4.68,4.68,0,0,1,5.72-3.3l15.13,4.05a4.68,4.68,0,0,1,3.3,5.72l-2.09,3.93C355.32,261.38,354.45,264.25,352,263.58Z"/><path class="cls-3" d="M348.5,278l-15.2-3.79c-2.49-.62-2.35-1.62-2.35-5.74l.32-5.42a4.68,4.68,0,0,1,5.66-3.4l15.2,3.79a4.68,4.68,0,0,1,3.4,5.66l-2,4C351.81,275.77,351,278.66,348.5,278Z"/><path class="cls-4" d="M348.5,278l-15.2-3.79c-2.49-.62-2.35-1.62-2.35-5.74l.32-5.42a4.68,4.68,0,0,1,5.66-3.4l15.2,3.79a4.68,4.68,0,0,1,3.4,5.66l-2,4C351.81,275.77,351,278.66,348.5,278Z"/><path class="cls-3" d="M345.29,292.55,330,289c-2.5-.58-2.37-1.57-2.45-5.7l.23-5.42a4.68,4.68,0,0,1,5.6-3.5l15.27,3.52a4.68,4.68,0,0,1,3.5,5.6l-1.95,4C348.56,290.23,347.79,293.13,345.29,292.55Z"/><path class="cls-4" d="M345.29,292.55,330,289c-2.5-.58-2.37-1.57-2.45-5.7l.23-5.42a4.68,4.68,0,0,1,5.6-3.5l15.27,3.52a4.68,4.68,0,0,1,3.5,5.6l-1.95,4C348.56,290.23,347.79,293.13,345.29,292.55Z"/><path class="cls-3" d="M342.32,307.12,327,303.86c-2.51-.53-2.4-1.53-2.55-5.65l.13-5.42a4.68,4.68,0,0,1,5.53-3.59l15.32,3.26A4.68,4.68,0,0,1,349,298l-1.88,4C345.56,304.74,344.83,307.65,342.32,307.12Z"/><path class="cls-4" d="M342.32,307.12,327,303.86c-2.51-.53-2.4-1.53-2.55-5.65l.13-5.42a4.68,4.68,0,0,1,5.53-3.59l15.32,3.26A4.68,4.68,0,0,1,349,298l-1.88,4C345.56,304.74,344.83,307.65,342.32,307.12Z"/><path class="cls-3" d="M339.62,321.73l-15.38-3c-2.52-.49-2.43-1.49-2.65-5.61l0-5.43A4.68,4.68,0,0,1,327.1,304l15.38,3a4.68,4.68,0,0,1,3.69,5.47l-1.81,4.06C342.81,319.3,342.14,322.22,339.62,321.73Z"/><path class="cls-4" d="M339.62,321.73l-15.38-3c-2.52-.49-2.43-1.49-2.65-5.61l0-5.43A4.68,4.68,0,0,1,327.1,304l15.38,3a4.68,4.68,0,0,1,3.69,5.47l-1.81,4.06C342.81,319.3,342.14,322.22,339.62,321.73Z"/><path class="cls-3" d="M337.17,336.4l-15.43-2.72c-2.53-.45-2.45-1.45-2.74-5.56l-.06-5.43a4.68,4.68,0,0,1,5.41-3.79l15.43,2.72a4.68,4.68,0,0,1,3.79,5.41l-1.74,4.09C340.31,333.91,339.69,336.84,337.17,336.4Z"/><path class="cls-4" d="M337.17,336.4l-15.43-2.72c-2.53-.45-2.45-1.45-2.74-5.56l-.06-5.43a4.68,4.68,0,0,1,5.41-3.79l15.43,2.72a4.68,4.68,0,0,1,3.79,5.41l-1.74,4.09C340.31,333.91,339.69,336.84,337.17,336.4Z"/><path class="cls-3" d="M335,351.1l-15.47-2.45c-2.54-.4-2.48-1.4-2.84-5.51l-.15-5.42a4.68,4.68,0,0,1,5.34-3.88l15.47,2.45a4.68,4.68,0,0,1,3.88,5.34l-1.67,4.12C338.07,348.55,337.51,351.5,335,351.1Z"/><path class="cls-4" d="M335,351.1l-15.47-2.45c-2.54-.4-2.48-1.4-2.84-5.51l-.15-5.42a4.68,4.68,0,0,1,5.34-3.88l15.47,2.45a4.68,4.68,0,0,1,3.88,5.34l-1.67,4.12C338.07,348.55,337.51,351.5,335,351.1Z"/><path class="cls-3" d="M333,365.84l-15.51-2.18c-2.54-.36-2.5-1.36-2.94-5.46l-.25-5.42a4.68,4.68,0,0,1,5.27-4L335.12,351a4.68,4.68,0,0,1,4,5.27l-1.59,4.15C336.09,363.24,335.57,366.19,333,365.84Z"/><path class="cls-4" d="M333,365.84l-15.51-2.18c-2.54-.36-2.5-1.36-2.94-5.46l-.25-5.42a4.68,4.68,0,0,1,5.27-4L335.12,351a4.68,4.68,0,0,1,4,5.27l-1.59,4.15C336.09,363.24,335.57,366.19,333,365.84Z"/><path class="cls-3" d="M331.35,380.61,315.8,378.7c-2.55-.31-2.52-1.32-3-5.41l-.34-5.42a4.68,4.68,0,0,1,5.2-4.06l15.55,1.91a4.68,4.68,0,0,1,4.06,5.2l-1.52,4.18C334.37,378,333.9,380.92,331.35,380.61Z"/><path class="cls-4" d="M331.35,380.61,315.8,378.7c-2.55-.31-2.52-1.32-3-5.41l-.34-5.42a4.68,4.68,0,0,1,5.2-4.06l15.55,1.91a4.68,4.68,0,0,1,4.06,5.2l-1.52,4.18C334.37,378,333.9,380.92,331.35,380.61Z"/><path class="cls-3" d="M329.93,395.4l-15.58-1.64c-2.55-.27-2.55-1.27-3.12-5.36l-.44-5.41a4.68,4.68,0,0,1,5.13-4.15l15.58,1.64a4.68,4.68,0,0,1,4.15,5.13l-1.45,4.21C332.9,392.7,332.48,395.67,329.93,395.4Z"/><path class="cls-4" d="M329.93,395.4l-15.58-1.64c-2.55-.27-2.55-1.27-3.12-5.36l-.44-5.41a4.68,4.68,0,0,1,5.13-4.15l15.58,1.64a4.68,4.68,0,0,1,4.15,5.13l-1.45,4.21C332.9,392.7,332.48,395.67,329.93,395.4Z"/><path class="cls-3" d="M328.77,410.22l-15.61-1.37c-2.56-.22-2.57-1.23-3.22-5.3l-.53-5.4a4.68,4.68,0,0,1,5.06-4.24l15.61,1.37a4.68,4.68,0,0,1,4.24,5.06l-1.37,4.23C331.68,407.47,331.32,410.45,328.77,410.22Z"/><path class="cls-4" d="M328.77,410.22l-15.61-1.37c-2.56-.22-2.57-1.23-3.22-5.3l-.53-5.4a4.68,4.68,0,0,1,5.06-4.24l15.61,1.37a4.68,4.68,0,0,1,4.24,5.06l-1.37,4.23C331.68,407.47,331.32,410.45,328.77,410.22Z"/><path class="cls-3" d="M327.86,425.06,312.23,424c-2.56-.18-2.59-1.18-3.31-5.24l-.63-5.39a4.68,4.68,0,0,1,5-4.33l15.63,1.09a4.68,4.68,0,0,1,4.33,5l-1.3,4.25C330.73,422.25,330.42,425.24,327.86,425.06Z"/><path class="cls-4" d="M327.86,425.06,312.23,424c-2.56-.18-2.59-1.18-3.31-5.24l-.63-5.39a4.68,4.68,0,0,1,5-4.33l15.63,1.09a4.68,4.68,0,0,1,4.33,5l-1.3,4.25C330.73,422.25,330.42,425.24,327.86,425.06Z"/><path class="cls-3" d="M327.22,439.91l-15.65-.82c-2.56-.13-2.61-1.14-3.4-5.19l-.72-5.38a4.68,4.68,0,0,1,4.9-4.42l15.65.82a4.68,4.68,0,0,1,4.42,4.9l-1.23,4.28C330,437.05,329.78,440,327.22,439.91Z"/><path class="cls-4" d="M327.22,439.91l-15.65-.82c-2.56-.13-2.61-1.14-3.4-5.19l-.72-5.38a4.68,4.68,0,0,1,4.9-4.42l15.65.82a4.68,4.68,0,0,1,4.42,4.9l-1.23,4.28C330,437.05,329.78,440,327.22,439.91Z"/><path class="cls-3" d="M326.83,454.77l-15.66-.55c-2.57-.09-2.63-1.09-3.49-5.12l-.81-5.36a4.68,4.68,0,0,1,4.83-4.5l15.66.55a4.68,4.68,0,0,1,4.5,4.83l-1.15,4.3C329.6,451.87,329.39,454.86,326.83,454.77Z"/><path class="cls-4" d="M326.83,454.77l-15.66-.55c-2.57-.09-2.63-1.09-3.49-5.12l-.81-5.36a4.68,4.68,0,0,1,4.83-4.5l15.66.55a4.68,4.68,0,0,1,4.5,4.83l-1.15,4.3C329.6,451.87,329.39,454.86,326.83,454.77Z"/><path class="cls-3" d="M326.7,469.64,311,469.36c-2.57,0-2.65-1-3.58-5.06l-.91-5.35a4.68,4.68,0,0,1,4.75-4.58l15.66.27a4.68,4.68,0,0,1,4.58,4.75l-1.08,4.32C329.42,466.68,329.27,469.68,326.7,469.64Z"/><path class="cls-4" d="M326.7,469.64,311,469.36c-2.57,0-2.65-1-3.58-5.06l-.91-5.35a4.68,4.68,0,0,1,4.75-4.58l15.66.27a4.68,4.68,0,0,1,4.58,4.75l-1.08,4.32C329.42,466.68,329.27,469.68,326.7,469.64Z"/><path class="cls-3" d="M326.83,484.5H311.17c-2.57,0-2.67-1-3.67-5l-1-5.33a4.68,4.68,0,0,1,4.67-4.67h15.67a4.68,4.68,0,0,1,4.67,4.67l-1,4.33C329.5,481.5,329.4,484.5,326.83,484.5Z"/><path class="cls-4" d="M326.83,484.5H311.17c-2.57,0-2.67-1-3.67-5l-1-5.33a4.68,4.68,0,0,1,4.67-4.67h15.67a4.68,4.68,0,0,1,4.67,4.67l-1,4.33C329.5,481.5,329.4,484.5,326.83,484.5Z"/><path class="cls-5" d="M964.87,355h-14A311.51,311.51,0,0,0,953,313c-.53-30.92-4-70.37-4-89,0-13.67,1.89-54.45,1.89-54.45h14S966.41,280.14,966,317C965.9,326.5,964.87,355,964.87,355Z"/><path class="cls-5" d="M869.2,262.3a3,3,0,0,0,3.06,2.91s23-1.16,30.74-1.22c12.24-.09,48.94,1.22,48.94,1.22A3,3,0,0,0,955,262.3v-5.76a3,3,0,0,0-3.25-2.91c-7.07.42-23.73,1.36-30.25,1.36-10.82,0-39.53-1.06-49.13-1.43a3,3,0,0,0-3.18,2.91Z"/><path class="cls-5" d="M877.56,264.45S899.29,245.79,906,239c14.27-14.44,53.41-61.15,53.41-61.15l-8.56-8.09S935.05,184.65,930,190c-15.41,16.3-61,66.36-61,66.36Z"/><path class="cls-5" d="M1207,355h-14V169.55h14s4,67,4,89.45C1211,282.92,1207,355,1207,355Z"/><path class="cls-5" d="M1111.32,267.22c-1,0,6.93-1.22,46.32.78,7.82.4,28.12-.36,35.57-.66a2.86,2.86,0,0,0,2.79-2.81v-6.14a2.87,2.87,0,0,0-3-2.81L1157.75,257h-.22l-43.19-1.45a2.87,2.87,0,0,0-3,2.81Z"/><path class="cls-5" d="M1119.67,264.45l38.42-46.35a21.12,21.12,0,0,1,2-2.06l41.48-38.18-8.56-8.09s-32,30.67-42,41.23c-10.48,11.09-39.89,45.36-39.89,45.36Z"/><path class="cls-5" d="M1092.92,183.68S1053.17,185,1040,185c-11.49,0-45.69-1.32-45.69-1.32V169.55h98.61Z"/><path class="cls-5" d="M1009.76,340.87H994.31S996,308,996,297c0-28.27-1.69-113.32-1.69-113.32h15.45s-.83,63.21-.76,84.32C1009.09,296.63,1009.76,341.15,1009.76,340.87Z"/><path class="cls-5" d="M1093,342h-17.54l4.54-40.87L1075,183h18s1,58.22,1,77.13C1094,280.51,1093,342,1093,342Z"/><path class="cls-5" d="M1092.92,355H994.31V340.87S1031.57,339,1044,339c12.24,0,48.92,1.87,48.92,1.87Z"/><path class="cls-6" d="M1312.4,215.9l-12,10.07c-2,1.65-2.69.95-6-1.47l-4.19-3.44a4.68,4.68,0,0,1,.58-6.57l12-10.07a4.68,4.68,0,0,1,6.57.58l2,4C1312.51,211.89,1314.36,214.25,1312.4,215.9Z"/><path class="cls-7" d="M1312.4,215.9l-12,10.07c-2,1.65-2.69.95-6-1.47l-4.19-3.44a4.68,4.68,0,0,1,.58-6.57l12-10.07a4.68,4.68,0,0,1,6.57.58l2,4C1312.51,211.89,1314.36,214.25,1312.4,215.9Z"/><path class="cls-6" d="M1321.14,228.79,1308.46,238c-2.08,1.51-2.75.76-5.91-1.89l-3.94-3.73a4.68,4.68,0,0,1,1-6.52l12.67-9.21a4.68,4.68,0,0,1,6.52,1l1.74,4.09C1321.53,224.8,1323.21,227.28,1321.14,228.79Z"/><path class="cls-7" d="M1321.14,228.79,1308.46,238c-2.08,1.51-2.75.76-5.91-1.89l-3.94-3.73a4.68,4.68,0,0,1,1-6.52l12.67-9.21a4.68,4.68,0,0,1,6.52,1l1.74,4.09C1321.53,224.8,1323.21,227.28,1321.14,228.79Z"/><path class="cls-6" d="M1329,242.26l-13.29,8.3c-2.18,1.36-2.79.57-5.76-2.3l-3.67-4a4.68,4.68,0,0,1,1.48-6.43l13.29-8.3a4.68,4.68,0,0,1,6.43,1.48l1.45,4.2C1329.63,238.3,1331.13,240.9,1329,242.26Z"/><path class="cls-7" d="M1329,242.26l-13.29,8.3c-2.18,1.36-2.79.57-5.76-2.3l-3.67-4a4.68,4.68,0,0,1,1.48-6.43l13.29-8.3a4.68,4.68,0,0,1,6.43,1.48l1.45,4.2C1329.63,238.3,1331.13,240.9,1329,242.26Z"/><path class="cls-6" d="M1335.82,256.24,1322,263.59c-2.27,1.2-2.82.37-5.58-2.69l-3.39-4.24a4.68,4.68,0,0,1,1.93-6.31l13.83-7.36a4.68,4.68,0,0,1,6.31,1.93l1.15,4.3C1336.77,252.34,1338.09,255,1335.82,256.24Z"/><path class="cls-7" d="M1335.82,256.24,1322,263.59c-2.27,1.2-2.82.37-5.58-2.69l-3.39-4.24a4.68,4.68,0,0,1,1.93-6.31l13.83-7.36a4.68,4.68,0,0,1,6.31,1.93l1.15,4.3C1336.77,252.34,1338.09,255,1335.82,256.24Z"/><path class="cls-6" d="M1341.69,270.66,1327.38,277c-2.34,1-2.84.17-5.38-3.08l-3.08-4.47a4.68,4.68,0,0,1,2.37-6.16l14.31-6.37a4.68,4.68,0,0,1,6.16,2.37l.85,4.37C1342.91,266.84,1344,269.62,1341.69,270.66Z"/><path class="cls-7" d="M1341.69,270.66,1327.38,277c-2.34,1-2.84.17-5.38-3.08l-3.08-4.47a4.68,4.68,0,0,1,2.37-6.16l14.31-6.37a4.68,4.68,0,0,1,6.16,2.37l.85,4.37C1342.91,266.84,1344,269.62,1341.69,270.66Z"/><path class="cls-6" d="M1346.54,285.46l-14.72,5.36c-2.41.88-2.85,0-5.16-3.44l-2.76-4.67a4.68,4.68,0,0,1,2.79-6l14.72-5.36a4.68,4.68,0,0,1,6,2.79l.54,4.41C1348,281.73,1349,284.58,1346.54,285.46Z"/><path class="cls-7" d="M1346.54,285.46l-14.72,5.36c-2.41.88-2.85,0-5.16-3.44l-2.76-4.67a4.68,4.68,0,0,1,2.79-6l14.72-5.36a4.68,4.68,0,0,1,6,2.79l.54,4.41C1348,281.73,1349,284.58,1346.54,285.46Z"/><path class="cls-6" d="M1350.34,300.56l-15.06,4.32c-2.47.71-2.84-.23-4.9-3.8l-2.43-4.85a4.68,4.68,0,0,1,3.2-5.77l15.06-4.32a4.68,4.68,0,0,1,5.77,3.2l.23,4.44C1352.08,296.94,1352.81,299.85,1350.34,300.56Z"/><path class="cls-7" d="M1350.34,300.56l-15.06,4.32c-2.47.71-2.84-.23-4.9-3.8l-2.43-4.85a4.68,4.68,0,0,1,3.2-5.77l15.06-4.32a4.68,4.68,0,0,1,5.77,3.2l.23,4.44C1352.08,296.94,1352.81,299.85,1350.34,300.56Z"/><path class="cls-6" d="M1353.09,315.89l-15.32,3.26c-2.51.53-2.82-.42-4.63-4.13l-2.09-5a4.68,4.68,0,0,1,3.59-5.53l15.32-3.26a4.68,4.68,0,0,1,5.53,3.59l-.08,4.45C1355.07,312.4,1355.6,315.36,1353.09,315.89Z"/><path class="cls-7" d="M1353.09,315.89l-15.32,3.26c-2.51.53-2.82-.42-4.63-4.13l-2.09-5a4.68,4.68,0,0,1,3.59-5.53l15.32-3.26a4.68,4.68,0,0,1,5.53,3.59l-.08,4.45C1355.07,312.4,1355.6,315.36,1353.09,315.89Z"/><path class="cls-6" d="M1354.75,331.37l-15.51,2.18c-2.54.36-2.78-.62-4.33-4.44l-1.73-5.14a4.68,4.68,0,0,1,4-5.27l15.51-2.18a4.68,4.68,0,0,1,5.27,4l-.39,4.43C1357,328,1357.3,331,1354.75,331.37Z"/><path class="cls-7" d="M1354.75,331.37l-15.51,2.18c-2.54.36-2.78-.62-4.33-4.44l-1.73-5.14a4.68,4.68,0,0,1,4-5.27l15.51-2.18a4.68,4.68,0,0,1,5.27,4l-.39,4.43C1357,328,1357.3,331,1354.75,331.37Z"/><path class="cls-6" d="M1355.34,346.94,1339.71,348c-2.56.18-2.73-.81-4-4.73l-1.37-5.25a4.68,4.68,0,0,1,4.33-5l15.63-1.09a4.68,4.68,0,0,1,5,4.33l-.7,4.39C1357.79,343.76,1357.9,346.76,1355.34,346.94Z"/><path class="cls-7" d="M1355.34,346.94,1339.71,348c-2.56.18-2.73-.81-4-4.73l-1.37-5.25a4.68,4.68,0,0,1,4.33-5l15.63-1.09a4.68,4.68,0,0,1,5,4.33l-.7,4.39C1357.79,343.76,1357.9,346.76,1355.34,346.94Z"/><path class="cls-6" d="M1354.83,362.5h-15.67c-2.57,0-2.67-1-3.67-5l-1-5.33a4.68,4.68,0,0,1,4.67-4.67h15.67a4.68,4.68,0,0,1,4.67,4.67l-1,4.33C1357.5,359.5,1357.4,362.5,1354.83,362.5Z"/><path class="cls-7" d="M1354.83,362.5h-15.67c-2.57,0-2.67-1-3.67-5l-1-5.33a4.68,4.68,0,0,1,4.67-4.67h15.67a4.68,4.68,0,0,1,4.67,4.67l-1,4.33C1357.5,359.5,1357.4,362.5,1354.83,362.5Z"/><path class="cls-8" d="M305.11,277.67c-4.75,2.26-27.86,11.9-27.86,11.9l5.17-12.28C268.52,294.49,248,303.7,248,303.7s21.69-43,54-53.2,59.1-13.35,60-5.51c.66,5.67-45.74,30.5-45.74,30.5l4.13-8.68C316.27,272.65,306.08,277.21,305.11,277.67Z"/><path class="cls-9" d="M362.06,244.72s-50.85,1.46-72.63,15.32c-34.31,21.84-41,43.8-41,43.8,1.66-22.36,18-50.22,39.68-60.26S356,234.31,362.06,244.72Z"/><path class="cls-8" d="M314.2,228c-3.75-2.53-21.14-15.57-21.14-15.57l10.23-2.57c-17.6-1.67-33.46-12.92-33.46-12.92s37.58-6.15,59.85,13.87,37.4,39.47,32.94,44.44C359.4,258.88,321,235.67,321,235.67l7.47-1.44C322.84,234.13,315,228.55,314.2,228Z"/><path class="cls-9" d="M362.83,255.18s-25.9-39.4-45.28-49.1C287,190.8,270,197.43,270,197.43c14.82-10.8,40.31-13,57.23-1.29S366.37,244.76,362.83,255.18Z"/><path class="cls-8" d="M386.92,284.71c3.09,3.3,18.69,18.44,18.69,18.44l.93-10.51c4.41,17.12,18,31,18,31s.18-38.08-23.09-56.94S356.61,236,352.4,241.16c-3,3.75,25.9,38,25.9,38l.25-7.6C379.54,277.14,386.29,284,386.92,284.71Z"/><path class="cls-9" d="M352.48,240.94s43,19.4,55.59,37c19.89,27.76,16,45.62,16,45.62,8.34-16.33,6.48-41.84-7.7-56.73S362.21,235.81,352.48,240.94Z"/><path class="cls-8" d="M390.44,240.09c3-.15,17.39-1.58,17.39-1.58l-4.94-5c10.59,5.1,23.48,4.16,23.48,4.16S407.1,221.26,387.54,225s-34.86,9.59-34,14c.6,3.15,30.41,3.14,30.41,3.14l-3.75-3.39C383.43,240.59,389.82,240.12,390.44,240.09Z"/><path class="cls-9" d="M353.43,238.81s28.29-13.5,42.65-12.36c22.63,1.81,30,11.44,30,11.44-4.71-11.24-18.47-21.24-32.12-20.43S355,231.66,353.43,238.81Z"/><path class="cls-8" d="M330.47,290.79c-2.39,3.84-14.73,21.73-14.73,21.73l-3-10.12c-1,17.65-11.6,33.94-11.6,33.94S293.56,299,312.7,276s38-38.91,43.12-34.64c3.72,3.09-18,42.31-18,42.31l-1.73-7.41C336.23,281.92,331,290,330.47,290.79Z"/><path class="cls-9" d="M355.71,241.14s-38.36,27.42-47.3,47.16c-14.09,31.11-6.79,47.86-6.79,47.86-11.37-14.39-14.52-39.77-3.52-57.14S345.15,238,355.71,241.14Z"/><path class="cls-8" d="M357.64,279.06c.57,3,4,17.37,4,17.37l4.23-5.84c-3.56,11.59-.83,24.51-.83,24.51s13.53-22.28,7.12-41.51-14.32-33.77-18.51-32.2c-3,1.14,1.14,31.37,1.14,31.37l2.82-4.37C356.16,272,357.52,278.44,357.64,279.06Z"/><path class="cls-9" d="M353.74,241.3s17.27,26.45,18.14,41.22c1.37,23.26-7.11,32.38-7.11,32.38,10.44-6.66,18.39-22.28,15.68-36S361,241.71,353.74,241.3Z"/><path class="cls-8" d="M1288.3,245.7c-2.46,3.14-14.85,17.53-14.85,17.53l-.66-10.08c-3.6,16.38-14.4,29.59-14.4,29.59s.12-36.51,18.59-54.4,35.55-29.11,38.83-24.1c2.37,3.62-20.67,36.21-20.67,36.21l-.14-7.29C1294.17,238.5,1288.8,245.06,1288.3,245.7Z"/><path class="cls-9" d="M1315.74,204s-34,18.24-44.06,35c-15.86,26.45-12.92,43.61-12.92,43.61-6.46-15.73-4.82-40.17,6.46-54.33S1308.11,199,1315.74,204Z"/><path class="cls-8" d="M1277.62,208.95c-3.4-.45-19.62-3.38-19.62-3.38l6.07-5.21c-12.5,4.84-27.07,2.59-27.07,2.59s23.4-16.92,45.3-10.9,38.76,14.08,37.41,19c-1,3.53-34.85.8-34.85.8l4.58-3.51C1285.55,210.16,1278.32,209,1277.62,208.95Z"/><path class="cls-9" d="M1319.81,210.86s-30.93-17.93-47.36-17.93c-25.89,0-35.19,10.27-35.19,10.27,6.38-12.35,22.94-22.46,38.38-20.29S1318.68,202.59,1319.81,210.86Z"/><path class="cls-8" d="M1346.17,222.71c3.22,1.19,18.93,6.16,18.93,6.16l-2.93-7.44c8.8,10.11,22.73,14.93,22.73,14.93s-12.8-25.88-35-30.78-40.85-5.63-41.94-.69c-.79,3.58,30.45,17,30.45,17l-2.41-5.24C1338.59,220.08,1345.51,222.47,1346.17,222.71Z"/><path class="cls-9" d="M1308,204.72s35.72-1.42,50.26,6.24c22.9,12.08,26.33,25.51,26.33,25.51.12-13.9-9.8-30.57-24.47-35.86S1312.82,197.93,1308,204.72Z"/><path class="cls-8" d="M1333.41,191.26c2-1.12,11.25-7,11.25-7l-5-1.7c8.91-.13,17.34-5.14,17.34-5.14s-18.64-4.6-30.64,4.56-20.39,18.33-18.34,21c1.48,1.94,21.69-8.19,21.69-8.19l-3.7-1C1328.83,194,1333,191.49,1333.41,191.26Z"/><path class="cls-9" d="M1307.88,202.95s14.6-18.76,24.73-22.85c16-6.45,24.25-2.43,24.25-2.43-7-6-19.74-8.14-28.71-3S1306.52,197.57,1307.88,202.95Z"/><path class="cls-8" d="M1309.95,246c-.31,3.42-2.62,19.74-2.62,19.74l-5.44-5.86c5.32,12.3,3.65,27,3.65,27s-17.82-22.72-12.66-44.84,12.56-39.27,17.49-38.12c3.57.83,2.16,34.8,2.16,34.8l-3.69-4.44C1310.85,238,1310,245.29,1309.95,246Z"/><path class="cls-9" d="M1310.22,203.76s-16.71,31.61-16.07,48c1,25.87,11.63,34.76,11.63,34.76-12.59-5.9-23.34-22-21.77-37.56S1302,205.21,1310.22,203.76Z"/><path class="cls-8" d="M1324.39,228.82c1.41,1.86,8.6,10.43,8.6,10.43l.89-5.39c1.52,9.07,7.75,16.91,7.75,16.91s1.61-19.7-9.25-30.56-21.17-18-23.48-15.56c-1.67,1.8,11.42,20.89,11.42,20.89l.43-3.92C1321,224.55,1324.1,228.44,1324.39,228.82Z"/><path class="cls-9" d="M1308.94,204.54s20.69,12.08,26.29,21.8c8.82,15.31,6.17,24.37,6.17,24.37,4.82-8.06,4.91-21.35-1.58-29.73S1314,202.34,1308.94,204.54Z"/><path class="cls-10" d="M468,582c-17,5-70.51,1.19-164,3-36.78.71-88.44,7.29-122,6-49.53-1.91-91.38,2.76-107-7-8-5-18-13-8-15,0,0,380-18.06,405-2C486,576,473.76,580.31,468,582Z"/><path class="cls-11" d="M469,569.35a2.53,2.53,0,0,1-2.08,4.21c-15.31-1.08-55.27-3.78-71.9-3.56-12.81.17-33.81,3.61-53,5-20.94,1.52-45.11,3-59,3-16.1,0-57-2.91-97,0-15.9,1.16-38.76,4-49,4-8,0-22.84-3.2-37-5-13.06-1.66-25.46-2.54-30.56-2.86a2.54,2.54,0,0,1-2.37-2.66C69.83,518.52,159.64,476,270,476a366.32,366.32,0,0,1,36.88,1.61C387.94,487.95,442.58,539.43,469,569.35Z"/><path class="cls-3" d="M192.4,336.9l-12,10.07c-2,1.65-2.69.95-6-1.47l-4.19-3.44a4.68,4.68,0,0,1,.58-6.57l12-10.07a4.68,4.68,0,0,1,6.57.58l2,4C192.51,332.89,194.36,335.25,192.4,336.9Z"/><path class="cls-4" d="M192.4,336.9l-12,10.07c-2,1.65-2.69.95-6-1.47l-4.19-3.44a4.68,4.68,0,0,1,.58-6.57l12-10.07a4.68,4.68,0,0,1,6.57.58l2,4C192.51,332.89,194.36,335.25,192.4,336.9Z"/><path class="cls-3" d="M201.14,349.79,188.46,359c-2.08,1.51-2.75.76-5.91-1.89l-3.94-3.73a4.68,4.68,0,0,1,1-6.52l12.67-9.21a4.68,4.68,0,0,1,6.52,1l1.74,4.09C201.53,345.8,203.21,348.28,201.14,349.79Z"/><path class="cls-4" d="M201.14,349.79,188.46,359c-2.08,1.51-2.75.76-5.91-1.89l-3.94-3.73a4.68,4.68,0,0,1,1-6.52l12.67-9.21a4.68,4.68,0,0,1,6.52,1l1.74,4.09C201.53,345.8,203.21,348.28,201.14,349.79Z"/><path class="cls-3" d="M209,363.26l-13.29,8.3c-2.18,1.36-2.79.57-5.76-2.3l-3.67-4a4.68,4.68,0,0,1,1.48-6.43l13.29-8.3a4.68,4.68,0,0,1,6.43,1.48l1.45,4.2C209.63,359.3,211.13,361.9,209,363.26Z"/><path class="cls-4" d="M209,363.26l-13.29,8.3c-2.18,1.36-2.79.57-5.76-2.3l-3.67-4a4.68,4.68,0,0,1,1.48-6.43l13.29-8.3a4.68,4.68,0,0,1,6.43,1.48l1.45,4.2C209.63,359.3,211.13,361.9,209,363.26Z"/><path class="cls-3" d="M215.82,377.24,202,384.59c-2.27,1.2-2.82.37-5.58-2.69L193,377.66a4.68,4.68,0,0,1,1.93-6.31L208.78,364a4.68,4.68,0,0,1,6.31,1.93l1.15,4.3C216.77,373.34,218.09,376,215.82,377.24Z"/><path class="cls-4" d="M215.82,377.24,202,384.59c-2.27,1.2-2.82.37-5.58-2.69L193,377.66a4.68,4.68,0,0,1,1.93-6.31L208.78,364a4.68,4.68,0,0,1,6.31,1.93l1.15,4.3C216.77,373.34,218.09,376,215.82,377.24Z"/><path class="cls-3" d="M221.69,391.66,207.38,398c-2.34,1-2.84.17-5.38-3.08l-3.08-4.47a4.68,4.68,0,0,1,2.37-6.16L215.59,378a4.68,4.68,0,0,1,6.16,2.37l.85,4.37C222.91,387.84,224,390.62,221.69,391.66Z"/><path class="cls-4" d="M221.69,391.66,207.38,398c-2.34,1-2.84.17-5.38-3.08l-3.08-4.47a4.68,4.68,0,0,1,2.37-6.16L215.59,378a4.68,4.68,0,0,1,6.16,2.37l.85,4.37C222.91,387.84,224,390.62,221.69,391.66Z"/><path class="cls-3" d="M226.54,406.46l-14.72,5.36c-2.41.88-2.85,0-5.16-3.44l-2.76-4.67a4.68,4.68,0,0,1,2.79-6l14.72-5.36a4.68,4.68,0,0,1,6,2.79l.54,4.41C228,402.73,229,405.58,226.54,406.46Z"/><path class="cls-4" d="M226.54,406.46l-14.72,5.36c-2.41.88-2.85,0-5.16-3.44l-2.76-4.67a4.68,4.68,0,0,1,2.79-6l14.72-5.36a4.68,4.68,0,0,1,6,2.79l.54,4.41C228,402.73,229,405.58,226.54,406.46Z"/><path class="cls-3" d="M230.34,421.56l-15.06,4.32c-2.47.71-2.84-.23-4.9-3.8L208,417.23a4.68,4.68,0,0,1,3.2-5.77l15.06-4.32a4.68,4.68,0,0,1,5.77,3.2l.23,4.44C232.08,417.94,232.81,420.85,230.34,421.56Z"/><path class="cls-4" d="M230.34,421.56l-15.06,4.32c-2.47.71-2.84-.23-4.9-3.8L208,417.23a4.68,4.68,0,0,1,3.2-5.77l15.06-4.32a4.68,4.68,0,0,1,5.77,3.2l.23,4.44C232.08,417.94,232.81,420.85,230.34,421.56Z"/><path class="cls-3" d="M233.09,436.89l-15.32,3.26c-2.51.53-2.82-.42-4.63-4.13l-2.09-5a4.68,4.68,0,0,1,3.59-5.53L230,422.22a4.68,4.68,0,0,1,5.53,3.59l-.08,4.45C235.07,433.4,235.6,436.36,233.09,436.89Z"/><path class="cls-4" d="M233.09,436.89l-15.32,3.26c-2.51.53-2.82-.42-4.63-4.13l-2.09-5a4.68,4.68,0,0,1,3.59-5.53L230,422.22a4.68,4.68,0,0,1,5.53,3.59l-.08,4.45C235.07,433.4,235.6,436.36,233.09,436.89Z"/><path class="cls-3" d="M234.75,452.37l-15.51,2.18c-2.54.36-2.78-.62-4.33-4.44L213.18,445a4.68,4.68,0,0,1,4-5.27l15.51-2.18a4.68,4.68,0,0,1,5.27,4l-.39,4.43C237,449,237.3,452,234.75,452.37Z"/><path class="cls-4" d="M234.75,452.37l-15.51,2.18c-2.54.36-2.78-.62-4.33-4.44L213.18,445a4.68,4.68,0,0,1,4-5.27l15.51-2.18a4.68,4.68,0,0,1,5.27,4l-.39,4.43C237,449,237.3,452,234.75,452.37Z"/><path class="cls-3" d="M235.34,467.94,219.71,469c-2.56.18-2.73-.81-4-4.73L214.33,459a4.68,4.68,0,0,1,4.33-5L234.29,453a4.68,4.68,0,0,1,5,4.33l-.7,4.39C237.79,464.76,237.9,467.76,235.34,467.94Z"/><path class="cls-4" d="M235.34,467.94,219.71,469c-2.56.18-2.73-.81-4-4.73L214.33,459a4.68,4.68,0,0,1,4.33-5L234.29,453a4.68,4.68,0,0,1,5,4.33l-.7,4.39C237.79,464.76,237.9,467.76,235.34,467.94Z"/><path class="cls-3" d="M234.83,483.5H219.17c-2.57,0-2.67-1-3.67-5l-1-5.33a4.68,4.68,0,0,1,4.67-4.67h15.67a4.68,4.68,0,0,1,4.67,4.67l-1,4.33C237.5,480.5,237.4,483.5,234.83,483.5Z"/><path class="cls-4" d="M234.83,483.5H219.17c-2.57,0-2.67-1-3.67-5l-1-5.33a4.68,4.68,0,0,1,4.67-4.67h15.67a4.68,4.68,0,0,1,4.67,4.67l-1,4.33C237.5,480.5,237.4,483.5,234.83,483.5Z"/><path class="cls-8" d="M157.31,378.52c-3,3.86-18.23,21.51-18.23,21.51l-.81-12.38c-4.41,20.1-17.68,36.33-17.68,36.33s.15-44.82,22.82-66.79,43.64-35.73,47.67-29.58c2.91,4.45-25.38,44.45-25.38,44.45l-.18-9C164.52,369.69,157.93,377.73,157.31,378.52Z"/><path class="cls-9" d="M191,327.36s-41.73,22.39-54.09,43c-19.47,32.47-15.87,53.53-15.87,53.53-7.93-19.31-5.91-49.32,7.93-66.7S181.63,321.22,191,327.36Z"/><path class="cls-8" d="M144.21,333.41c-4.18-.55-24.09-4.15-24.09-4.15l7.45-6.4C112.22,328.79,94.34,326,94.34,326s28.72-20.77,55.61-13.38,47.58,17.28,45.93,23.28c-1.19,4.34-42.79,1-42.79,1l5.62-4.31C153.94,334.89,145.06,333.52,144.21,333.41Z"/><path class="cls-9" d="M196,335.76s-38-22-58.14-22c-31.79,0-43.2,12.61-43.2,12.61,7.84-15.16,28.16-27.58,47.11-24.91S194.61,325.61,196,335.76Z"/><path class="cls-8" d="M228.35,350.3c3.95,1.46,23.24,7.57,23.24,7.57l-3.6-9.13c10.8,12.41,27.91,18.32,27.91,18.32S260.19,335.29,233,329.28s-50.14-6.92-51.48-.85c-1,4.39,37.38,20.84,37.38,20.84l-3-6.43C219.06,347.08,227.54,350,228.35,350.3Z"/><path class="cls-9" d="M181.45,328.22s43.85-1.75,61.7,7.66c28.12,14.83,32.32,31.31,32.32,31.31.15-17.07-12-37.53-30-44S187.42,319.89,181.45,328.22Z"/><path class="cls-8" d="M212.7,311.7c2.44-1.38,13.81-8.56,13.81-8.56L220.33,301c10.94-.16,21.28-6.31,21.28-6.31s-22.88-5.65-37.61,5.6-25,22.5-22.52,25.79c1.81,2.38,26.62-10.05,26.62-10.05l-4.54-1.26C207.07,315,212.2,312,212.7,311.7Z"/><path class="cls-9" d="M181.35,326s17.93-23,30.36-28.05c19.59-7.92,29.77-3,29.77-3-8.61-7.4-24.23-10-35.25-3.63S179.68,319.44,181.35,326Z"/><path class="cls-8" d="M183.89,378.88c-.39,4.19-3.21,24.23-3.21,24.23L174,395.92c6.53,15.1,4.47,33.08,4.47,33.08s-21.87-27.89-15.54-55,15.42-48.21,21.47-46.8c4.38,1,2.65,42.72,2.65,42.72l-4.52-5.45C185,369.1,184,378,183.89,378.88Z"/><path class="cls-9" d="M184.22,327s-20.51,38.8-19.73,59c1.23,31.76,14.28,42.67,14.28,42.67-15.46-7.24-28.65-27.06-26.73-46.1S174.13,328.82,184.22,327Z"/><path class="cls-8" d="M201.62,357.8c1.73,2.28,10.55,12.8,10.55,12.8l1.09-6.62c1.86,11.13,9.52,20.76,9.52,20.76s2-24.18-11.36-37.52-26-22.15-28.82-19.1c-2,2.21,14,25.64,14,25.64l.53-4.82C197.47,352.56,201.27,357.34,201.62,357.8Z"/><path class="cls-9" d="M182.65,328s25.4,14.83,32.27,26.76c10.83,18.79,7.57,29.92,7.57,29.92,5.92-9.89,6-26.21-1.94-36.49S188.88,325.3,182.65,328Z"/><path class="cls-10" d="M1305,462c-28.44,5.37-37,21-192.69,4.67-60.93-6.39-147.46,5.6-203.32,2.88-82.44-4-152.25.09-178-12.1C717.77,451.2,705.3,441,722,439c0,0,629.34-7.94,670.54,12.09C1415.63,462.31,1314.63,460.18,1305,462Z"/><path class="cls-11" d="M1366,446s-46.06-3.54-91-1c-53,3-7,17-82,17-65,0-82-16-114.5-15.94-36.94.06-110.87,10-147.5,8.94-28.31-.85-84.25-12-112-12-24.22,0-95.39,3.13-95.39,3.13a2.48,2.48,0,0,1-2.49-2.69C726.51,390.56,889.88,348,1060,348.13c200.49.15,289.17,9,303.81,10.62a2.48,2.48,0,0,1,2.21,2.47v82.29C1366,444.89,1367.37,446,1366,446Z"/></svg>