<svg xmlns="http://www.w3.org/2000/svg" width="31.924" height="34.191" viewBox="0 0 31.924 34.191">
  <g id="Gruppe_1" data-name="Gruppe 1" transform="translate(-254 -258.261)">
    <path id="path815" d="M7.8-51.6C2.269-43.974,1.063-37.184,4.146-31.08A11.1,11.1,0,0,0,7.9-26.8c.07.048,2.564,1.1,2.915,1.293,1.55.525,1.081-.074,1.427-.9.067.213.06.084-.043-.076a41.015,41.015,0,0,1-3.9-1.491c-1.508-1.09-2.548-3.3-2.749-5.979-.2-2.8.536-5.107,3.52-11.243a42.111,42.111,0,0,0,2.313-5.45c.168-1.028-.737-3.021-1.475-3.27C9.711-53.97,8.772-52.912,7.8-51.6Z" transform="translate(251.514 312.172)" fill="#d35f26"/>
    <text id="text931" transform="translate(258.689 283)" fill="#d35f26" font-size="21" font-family="SegoeUI, Segoe UI"><tspan x="0" y="0">4</tspan></text>
    <path id="path815-2" data-name="path815" d="M39.477-28c2.95-.779,2.916-.872,2.011,2.585-.939,3.519-.972,3.862-.369,3.644a19.492,19.492,0,0,0,2.548-4.142L45.812-29.9l1.877-.561c2.548-.747,3.721-1.339,3.721-1.869,0-.561-1.676-.623-4.458-.125l-1.911.311-4.19-2.367c-5.833-3.3-6.4-3.27-2.581.187a29.892,29.892,0,0,1,3.218,3.179c-1.277.382-2.015.582-4.2,1.245-.325.085-1.3.422-2.9.863-.888.188-1.3.214-1.425.25a24.783,24.783,0,0,1-3.632.247c-.541-.079-.793-.22-1.028-.247l-3.687-.25.438.368.45.288.738.381,2.063.709,1.15.288.775.1,1.375.075A41.709,41.709,0,0,0,39.477-28Z" transform="translate(234.514 314.172)" fill="#d35f26"/>
  </g>
</svg>
