<svg xmlns="http://www.w3.org/2000/svg" width="67.181" height="33.455" viewBox="0 0 67.181 33.455">
  <g id="Gruppe_1" data-name="Gruppe 1" transform="translate(-458.441 -155.004)">
    <path id="path815" d="M7.8-51.6C2.269-43.974,1.063-37.184,4.146-31.08c3.151,6.2,8.414,7.941,19.475,6.509A147.763,147.763,0,0,0,39.477-28c2.95-.779,2.916-.872,2.011,2.585-.939,3.519-.972,3.862-.369,3.644a19.492,19.492,0,0,0,2.548-4.142L45.812-29.9l1.877-.561c2.548-.747,3.721-1.339,3.721-1.869,0-.561-1.676-.623-4.458-.125l-1.911.311-4.19-2.367c-5.833-3.3-6.4-3.27-2.581.187a25.794,25.794,0,0,1,2.983,2.959,30.323,30.323,0,0,1-3.62,1.028c-1.911.5-5.43,1.4-7.844,1.993C19.633-25.755,11.621-25.6,8.3-27.966c-1.508-1.09-2.548-3.3-2.749-5.979-.2-2.8.536-5.107,3.52-11.243a42.11,42.11,0,0,0,2.313-5.45c.168-1.028-.737-3.021-1.475-3.27C9.711-53.97,8.772-52.912,7.8-51.6Z" transform="translate(455.956 210.176)" fill="#d35f26"/>
    <text id="text927" transform="translate(472.622 171.284)" fill="#707070" font-size="10" font-family="Raleway"><tspan x="0" y="0">Roundtrips</tspan></text>
    <text id="text931" transform="translate(462.131 179.004)" fill="#d35f26" font-size="21" font-family="SegoeUI, Segoe UI"><tspan x="0" y="0">4</tspan></text>
    <text id="text935" transform="translate(473.641 178.503)" fill="#707070" font-size="10" font-family="Raleway"><tspan x="0" y="0">you</tspan></text>
  </g>
</svg>
